<?xml version="1.0" encoding="utf-8"?>
<!-- Generator: Adobe Illustrator 23.1.1, SVG Export Plug-In . SVG Version: 6.00 Build 0)  -->
<svg version="1.1" id="レイヤー_1" xmlns="http://www.w3.org/2000/svg" xmlns:xlink="http://www.w3.org/1999/xlink" x="0px"
	 y="0px" viewBox="0 0 367 52" style="enable-background:new 0 0 367 52;" xml:space="preserve">
<style type="text/css">
	.st0{fill:#1E4E9C;}
</style>
<g>
	<path class="st0" d="M24.78,7.04L7.79,43.48H5.72L22.71,7.04H24.78z"/>
	<path class="st0" d="M42.88,35.63l-11.63,7.85H12.66l0.96-2.07h17.76l8.6-5.78L28.97,14.98l11.55-7.93h11.77l-0.96,2.07H40.46
		l-8.6,5.87L42.88,35.63z"/>
	<path class="st0" d="M79.89,6.92L62.9,43.35H43.7L60.69,6.92h2.07L46.73,41.29H61.8L77.83,6.92H79.89z"/>
	<path class="st0" d="M100.4,22.12l-9.9,21.23h-2.07l8.94-19.17L68.7,43.77l-0.85-1.45L98.71,21.3l6.7-14.38h2.07l-5.74,12.31
		l18.74-12.72l0.77,1.45L100.4,22.12z"/>
	<path class="st0" d="M145.44,14.98l-27.28,18.55l-0.77-1.45l25.08-17.1l-3.05-5.87H127.2l-15.97,34.24h-2.07l16.93-36.31h15.12
		L145.44,14.98z"/>
	<path class="st0" d="M163.65,42.45l-2.12,1.45L151.49,25.3l15.14-10.33l-3.13-5.87h-8.8l-16.03,34.37h-2.07L153.6,7.04h11.77
		l4.15,7.93L154.38,25.3L163.65,42.45z"/>
	<path class="st0" d="M194.58,41.41l-0.96,2.07h-22.72l12.81-27.47h-3.51l0.96-2.07h3.51l3.22-6.9h19.21l-0.96,2.07h-17.14
		l-2.25,4.83h13.75l-0.96,2.07h-13.75l-11.85,25.4H194.58z"/>
	<path class="st0" d="M228.79,35.63l-11.63,7.85h-18.59l0.96-2.07h17.76l8.6-5.78l-11.02-20.65l11.55-7.93h11.77l-0.96,2.07h-10.86
		l-8.6,5.87L228.79,35.63z"/>
	<path class="st0" d="M259.76,35.63l-11.63,7.85h-18.59l0.96-2.07h17.76l8.6-5.78l-11.02-20.65l11.55-7.93h11.77l-0.96,2.07h-10.86
		l-8.6,5.87L259.76,35.63z"/>
	<path class="st0" d="M322.58,13.86l-18.17,12.39l-0.89-1.45l13.15-8.88H302.9l-12.79,27.43h-12.39l0.96-2.07h10.33l11.83-25.36
		H283.7l0.96-2.07h15.7l-1.2-2.48l2.12-1.45l1.81,3.39c1.94-1.24,4.71-3.18,6.48-4.34h-15.82l0.96-2.07h20.78l-10.18,6.94H322.58z"
		/>
	<path class="st0" d="M317.62,33.98l4.37,8.34l-2.12,1.45l-4.49-8.26L317.62,33.98z M322.62,30.59l4.45,8.34l-2.2,1.45l-4.37-8.34
		L322.62,30.59z M332.22,19.31h-10.33l18.78-12.81l0.85,1.45l-13.63,9.29h10.33l-10.13,6.94h6.82l1.64-3.51h2.07l-2.6,5.58h-13.84
		L332.22,19.31z M327.61,27.16l4.49,8.34l-2.12,1.45l-4.49-8.34L327.61,27.16z M360.56,10.35l-15.39,33.01h-8.88l0.96-2.07h6.82
		l13.46-28.87h-12.31l-5.63,3.92l-0.77-1.45L351,6.51l0.85,1.45l-3.6,2.4H360.56z M345.11,26.67l-4.47-8.39l2.12-1.45l4.47,8.39
		L345.11,26.67z"/>
</g>
</svg>
